<?xml version="1.0" encoding="UTF-8"?>
<svg width="48" height="48" version="1.1" viewBox="0 0 12.7 12.7" xmlns="http://www.w3.org/2000/svg" xmlns:cc="http://creativecommons.org/ns#" xmlns:dc="http://purl.org/dc/elements/1.1/" xmlns:rdf="http://www.w3.org/1999/02/22-rdf-syntax-ns#">
<metadata>
<rdf:RDF>
<cc:Work rdf:about="">
<dc:format>image/svg+xml</dc:format>
<dc:type rdf:resource="http://purl.org/dc/dcmitype/StillImage"/>
<dc:title/>
</cc:Work>
</rdf:RDF>
</metadata>
<g transform="translate(0,-284.3)">
<g transform="translate(.094494 -.75595)" fill="none" stroke="#000">
<ellipse cx="6.024" cy="289.02" rx="2.008" ry="1.9608" stroke-width=".151"/>
<path transform="matrix(1.221 0 0 1.1535 11.586 290.07)" d="m-3.3109 0.12048c1.9176-2.3394-4.4667 0.067724-1.4819 0.55873 2.9848 0.49101-2.292-3.8344-1.2248-1.004 1.0672 2.8304 2.1747-3.9022 0.25707-1.5627s4.4667-0.067724 1.4819-0.55873c-2.9848-0.49101 2.292 3.8344 1.2248 1.004-1.0672-2.8304-2.1747 3.9022-0.25707 1.5627z" stroke-width=".066568"/>
<path d="m5.0082 290.74" stroke-width=".26458px"/>
<path d="m5.0318 290.67v4.0632z" stroke-width=".075"/>
<path d="m7.0398 290.67v4.0632z" stroke-width=".075"/>
<path d="m6.0004 290.86v2.5513z" stroke-width=".018"/>
<path d="m5.008 292.53a0.26389 1.1027 0 0 1 0.26396 1.1028 0.26389 1.1027 0 0 1-0.26396 1.1028 0.26389 1.1027 0 0 1-0.25422-0.81265c0.13977-0.15204 0.25877-0.28069 0.25875-0.27798-1.55e-5 3e-3 -0.11897 0.057-0.26622 0.12342a0.26389 1.1027 0 0 1-0.00203-0.1356 0.26389 1.1027 0 0 1 0.26373-1.1028z" stroke-width=".044557"/>
<path d="m7.0162 292.46a0.26389 1.1027 0 0 0-0.26396 1.1028 0.26389 1.1027 0 0 0 0.26396 1.1028 0.26389 1.1027 0 0 0 0.25422-0.81265c-0.13977-0.15204-0.25877-0.28069-0.25875-0.27798 1.55e-5 3e-3 0.11897 0.057 0.26622 0.12342a0.26389 1.1027 0 0 0 0.00203-0.1356 0.26389 1.1027 0 0 0-0.26373-1.1028z" stroke-width=".044557"/>
<path d="m6.0001 291.23a0.26389 1.1027 0 0 1 0.26396 1.1028 0.26389 1.1027 0 0 1-0.26396 1.1028 0.26389 1.1027 0 0 1-0.25422-0.81265c0.13977-0.15204 0.25877-0.28069 0.25875-0.27798-1.55e-5 3e-3 -0.11897 0.057-0.26622 0.12342a0.26389 1.1027 0 0 1-0.00203-0.1356 0.26389 1.1027 0 0 1 0.26373-1.1028z" stroke-width=".044557"/>
</g>
</g>
</svg>