<?xml version="1.0" encoding="UTF-8" standalone="no"?>
<!-- Created with Inkscape (http://www.inkscape.org/) -->

<svg
   xmlns:dc="http://purl.org/dc/elements/1.1/"
   xmlns:cc="http://creativecommons.org/ns#"
   xmlns:rdf="http://www.w3.org/1999/02/22-rdf-syntax-ns#"
   xmlns:svg="http://www.w3.org/2000/svg"
   xmlns="http://www.w3.org/2000/svg"
   xmlns:sodipodi="http://sodipodi.sourceforge.net/DTD/sodipodi-0.dtd"
   xmlns:inkscape="http://www.inkscape.org/namespaces/inkscape"
   width="150"
   height="150"
   viewBox="0 0 39.687499 39.687501"
   version="1.1"
   id="svg1394"
   inkscape:version="0.92.4 (5da689c313, 2019-01-14)"
   sodipodi:docname="LOGO.svg">
  <defs
     id="defs1388" />
  <sodipodi:namedview
     id="base"
     pagecolor="#ffffff"
     bordercolor="#666666"
     borderopacity="1.0"
     inkscape:pageopacity="0.0"
     inkscape:pageshadow="2"
     inkscape:zoom="2.8"
     inkscape:cx="241.13279"
     inkscape:cy="9.1085574"
     inkscape:document-units="px"
     inkscape:current-layer="layer1"
     showgrid="false"
     units="px"
     inkscape:pagecheckerboard="true"
     showguides="false"
     inkscape:guide-bbox="true"
     inkscape:snap-global="false"
     inkscape:window-width="2400"
     inkscape:window-height="1271"
     inkscape:window-x="-9"
     inkscape:window-y="-9"
     inkscape:window-maximized="1">
    <sodipodi:guide
       position="19.911579,29.800553"
       orientation="1,0"
       id="guide1939"
       inkscape:locked="false" />
    <sodipodi:guide
       position="16.904798,23.185632"
       orientation="0,1"
       id="guide1941"
       inkscape:locked="false" />
    <sodipodi:guide
       position="15.902537,30.335091"
       orientation="1,0"
       id="guide1943"
       inkscape:locked="false" />
    <sodipodi:guide
       position="23.786988,28.664657"
       orientation="1,0"
       id="guide1945"
       inkscape:locked="false" />
    <sodipodi:guide
       position="16.370258,33.141422"
       orientation="0,1"
       id="guide1947"
       inkscape:locked="false" />
    <sodipodi:guide
       position="19.911578,13.229842"
       orientation="0,1"
       id="guide1949"
       inkscape:locked="false" />
  </sodipodi:namedview>
  <metadata
     id="metadata1391">
    <rdf:RDF>
      <cc:Work
         rdf:about="">
        <dc:format>image/svg+xml</dc:format>
        <dc:type
           rdf:resource="http://purl.org/dc/dcmitype/StillImage" />
        <dc:title></dc:title>
      </cc:Work>
    </rdf:RDF>
  </metadata>
  <g
     inkscape:label="Layer 1"
     inkscape:groupmode="layer"
     id="layer1"
     transform="translate(0,-257.31249)">
    <g
       id="g2015">
      <ellipse
         ry="9.9557896"
         rx="9.9223814"
         cy="267.60034"
         cx="19.744537"
         id="path1951"
         style="opacity:1;fill:none;fill-opacity:1;stroke:#000000;stroke-width:0.30321249;stroke-miterlimit:4;stroke-dasharray:none;stroke-dashoffset:0;stroke-opacity:1" />
      <path
         inkscape:transform-center-y="-1.6990078"
         inkscape:transform-center-x="0.52994053"
         transform="matrix(1.0203146,0,0,0.99607971,9.429352,261.04658)"
         d="M 16.971615,11.757834 C 31.614636,-7.7661927 -15.880102,6.8724139 7.2132936,14.765498 30.306689,22.658583 1.7078656,-17.988019 1.3373477,6.4142027 0.96682989,30.816424 30.786523,-8.9431638 7.4641348,-1.7548462 -15.858253,5.4334715 31.170154,21.507296 17.126643,1.5476997 3.0831327,-18.411897 2.3285938,31.281861 16.971615,11.757834 Z"
         inkscape:randomized="8.67362e-17"
         inkscape:rounded="-2.39"
         inkscape:flatsided="true"
         sodipodi:arg2="1.2718197"
         sodipodi:arg1="0.64350114"
         sodipodi:r2="4.3431301"
         sodipodi:r1="8.6862602"
         sodipodi:cy="6.5460777"
         sodipodi:cx="10.022607"
         sodipodi:sides="5"
         id="path1953"
         style="opacity:1;fill:none;fill-opacity:1;stroke:#000000;stroke-width:0.11799999;stroke-miterlimit:4;stroke-dasharray:none;stroke-dashoffset:0;stroke-opacity:1"
         sodipodi:type="star" />
      <path
         inkscape:connector-curvature="0"
         id="path1959"
         d="m 19.911579,277.68977 v 10.28988 z"
         style="fill:none;stroke:#000000;stroke-width:0.35694245;stroke-linecap:butt;stroke-linejoin:miter;stroke-miterlimit:4;stroke-dasharray:none;stroke-opacity:1" />
      <path
         style="fill:none;stroke:#000000;stroke-width:0.34395832;stroke-linecap:butt;stroke-linejoin:miter;stroke-miterlimit:4;stroke-dasharray:none;stroke-opacity:1"
         d="m 15.902536,276.75433 v 9.55488 z"
         id="path1961"
         inkscape:connector-curvature="0" />
      <path
         inkscape:connector-curvature="0"
         id="path1963"
         d="m 23.820396,276.68751 v 9.55488 z"
         style="fill:none;stroke:#000000;stroke-width:0.34395832;stroke-linecap:butt;stroke-linejoin:miter;stroke-miterlimit:4;stroke-dasharray:none;stroke-opacity:1" />
      <path
         style="opacity:1;fill:none;fill-opacity:1;stroke:#000000;stroke-width:0.14740153;stroke-miterlimit:4;stroke-dasharray:none;stroke-dashoffset:0;stroke-opacity:1"
         d="m 15.936075,286.09896 a 0.77957082,4.3201217 0 0 1 0.779524,4.32016 0.77957082,4.3201217 0 0 1 -0.779524,4.31991 0.77957082,4.3201217 0 0 1 -0.755406,-3.27108 c 0.383865,-0.18937 0.703216,-0.34464 0.813437,-0.39014 0.03157,-0.005 0.0526,-0.011 0.05627,-0.0171 0.0037,-0.006 -0.01845,0.001 -0.05627,0.0171 -0.118576,0.0198 -0.423717,0.0338 -0.826501,0.043 a 0.77957082,4.3201217 0 0 1 -0.0113,-0.70165 0.77957082,4.3201217 0 0 1 0.779774,-4.32016 z"
         id="path1979"
         inkscape:connector-curvature="0" />
      <path
         style="opacity:1;fill:none;fill-opacity:1;stroke:#000000;stroke-width:0.14740153;stroke-miterlimit:4;stroke-dasharray:none;stroke-dashoffset:0;stroke-opacity:1"
         d="m 23.820279,286.16577 a 0.77957082,4.3201217 0 0 0 -0.779524,4.32016 0.77957082,4.3201217 0 0 0 0.779524,4.31991 0.77957082,4.3201217 0 0 0 0.755406,-3.27108 c -0.383865,-0.18937 -0.703216,-0.34464 -0.813437,-0.39014 -0.03157,-0.005 -0.0526,-0.011 -0.05627,-0.0171 -0.0037,-0.006 0.01845,10e-4 0.05627,0.0171 0.118576,0.0198 0.423717,0.0338 0.826501,0.043 a 0.77957082,4.3201217 0 0 0 0.0113,-0.70165 0.77957082,4.3201217 0 0 0 -0.779774,-4.32016 z"
         id="path1983"
         inkscape:connector-curvature="0" />
      <path
         inkscape:connector-curvature="0"
         id="path1985"
         d="m 19.944871,287.96984 a 0.77957082,4.3201217 0 0 0 -0.779524,4.32016 0.77957082,4.3201217 0 0 0 0.779524,4.31991 0.77957082,4.3201217 0 0 0 0.755406,-3.27108 c -0.383865,-0.18937 -0.703216,-0.34464 -0.813437,-0.39014 -0.03157,-0.005 -0.0526,-0.011 -0.05627,-0.0171 -0.0037,-0.006 0.01845,10e-4 0.05627,0.0171 0.118576,0.0198 0.423717,0.0338 0.826501,0.043 a 0.77957082,4.3201217 0 0 0 0.0113,-0.70165 0.77957082,4.3201217 0 0 0 -0.779774,-4.32016 z"
         style="opacity:1;fill:none;fill-opacity:1;stroke:#000000;stroke-width:0.14740153;stroke-miterlimit:4;stroke-dasharray:none;stroke-dashoffset:0;stroke-opacity:1" />
      <path
         inkscape:connector-curvature="0"
         id="path1996"
         d="m 23.88337,294.85025 c -0.07087,-9.02418 -0.07087,-9.02418 -0.07087,-9.02418 v 0 l -0.04725,0.0472 z"
         style="fill:none;stroke:#000000;stroke-width:0.02645833;stroke-linecap:butt;stroke-linejoin:miter;stroke-opacity:1;stroke-miterlimit:4;stroke-dasharray:none" />
      <path
         style="fill:none;stroke:#000000;stroke-width:0.02645833;stroke-linecap:butt;stroke-linejoin:miter;stroke-miterlimit:4;stroke-dasharray:none;stroke-opacity:1"
         d="m 19.961867,296.62201 c -0.07087,-9.02418 -0.07087,-9.02418 -0.07087,-9.02418 v 0 l -0.04725,0.0472 z"
         id="path1998"
         inkscape:connector-curvature="0" />
      <path
         inkscape:connector-curvature="0"
         id="path2002"
         d="m 15.969493,294.803 c -0.07087,-9.02418 -0.07087,-9.02418 -0.07087,-9.02418 v 0 l -0.04725,0.0472 z"
         style="fill:none;stroke:#000000;stroke-width:0.02645833;stroke-linecap:butt;stroke-linejoin:miter;stroke-miterlimit:4;stroke-dasharray:none;stroke-opacity:1" />
    </g>
  </g>
</svg>
